<?xml version="1.0" encoding="UTF-8" standalone="no"?>
<!-- Created with Inkscape (http://www.inkscape.org/) -->

<svg
   xmlns:dc="http://purl.org/dc/elements/1.1/"
   xmlns:cc="http://creativecommons.org/ns#"
   xmlns:rdf="http://www.w3.org/1999/02/22-rdf-syntax-ns#"
   xmlns:svg="http://www.w3.org/2000/svg"
   xmlns="http://www.w3.org/2000/svg"
   xmlns:sodipodi="http://sodipodi.sourceforge.net/DTD/sodipodi-0.dtd"
   xmlns:inkscape="http://www.inkscape.org/namespaces/inkscape"
   width="599.30066"
   height="444.55295"
   id="svg2"
   version="1.1"
   inkscape:version="0.48.0 r9654"
   sodipodi:docname="New document 1">
  <defs
     id="defs4">
    <filter
       inkscape:collect="always"
       id="filter3941"
       x="-0.26466659"
       width="1.5293332"
       y="-0.53558201"
       height="2.0711639"
       color-interpolation-filters="sRGB">
      <feGaussianBlur
         inkscape:collect="always"
         stdDeviation="37.993704"
         id="feGaussianBlur3943" />
    </filter>
  </defs>
  <sodipodi:namedview
     id="base"
     pagecolor="#ffffff"
     bordercolor="#666666"
     borderopacity="1.0"
     inkscape:pageopacity="0.0"
     inkscape:pageshadow="2"
     inkscape:zoom="0.7"
     inkscape:cx="286.66307"
     inkscape:cy="107.4341"
     inkscape:document-units="px"
     inkscape:current-layer="layer1"
     showgrid="false"
     fit-margin-top="0"
     fit-margin-left="0"
     fit-margin-right="0"
     fit-margin-bottom="0"
     inkscape:window-width="1680"
     inkscape:window-height="1024"
     inkscape:window-x="0"
     inkscape:window-y="0"
     inkscape:window-maximized="0" />
  <metadata
     id="metadata7">
    <rdf:RDF>
      <cc:Work
         rdf:about="">
        <dc:format>image/svg+xml</dc:format>
        <dc:type
           rdf:resource="http://purl.org/dc/dcmitype/StillImage" />
        <dc:title></dc:title>
      </cc:Work>
    </rdf:RDF>
  </metadata>
  <g
     inkscape:label="Layer 1"
     inkscape:groupmode="layer"
     id="layer1"
     transform="translate(-95.652928,-192.75954)">
    <path
       style="fill:#784421;stroke:#000000;stroke-width:1px;stroke-linecap:butt;stroke-linejoin:miter;stroke-opacity:1"
       d="m 416.14678,193.28758 c -23.42927,0.74724 -46.80118,3.85335 -69.57273,9.43523 -34.66832,8.51523 -67.66099,23.57213 -97.0468,43.8117 -31.73849,21.77029 -59.03138,49.62106 -81.77738,80.57633 -17.44701,23.73834 -32.20074,49.38415 -44.7007,76.04154 -7.37074,15.98721 -15.20387,31.77495 -21.89433,48.06666 -3.124206,7.65331 -5.312402,15.84571 -4.976811,24.17478 0.09352,8.87705 1.378509,17.6836 2.29,26.49925 2.120661,15.70979 5.656741,31.58561 13.619251,45.45728 7.04133,11.81419 18.01866,20.53489 29.03118,28.45285 12.60924,9.12852 25.76286,17.56757 39.7699,24.4002 20.22235,10.0857 41.51153,17.93318 63.20528,24.20098 23.21049,6.53405 47.19785,10.37003 71.30761,11.09484 21.57951,0.8977 43.18002,1.24095 64.77661,1.29786 13.89822,-0.14175 27.87156,-0.80102 41.50458,-3.69762 21.47485,-4.12563 42.20468,-11.3368 62.58586,-19.13314 25.65333,-9.94461 50.33968,-22.59113 72.77072,-38.57737 20.16514,-14.05514 38.89319,-30.28294 55.08827,-48.8002 10.42699,-12.18326 19.09234,-25.7365 27.21547,-39.52652 11.42442,-19.2131 22.05041,-38.88679 32.64941,-58.56256 9.0185,-17.53866 16.59379,-36.14149 19.29014,-55.79618 3.33798,-21.6521 5.56515,-65.46996 -1.57978,-86.3092 -6.1622,-18.0478 -11.22602,-16.23806 -22.11881,-31.77484 -7.59277,-10.58892 -24.4288,-17.78588 -35.93694,-24.23812 -10.34809,-5.86068 -21.8679,-9.08537 -32.79964,-13.62611 -9.54534,-3.78906 -19.2827,-7.20923 -29.37156,-9.23143 -16.9123,-3.80292 -34.10077,-6.16369 -51.22686,-8.76245 -14.37445,-2.11651 -28.84659,-3.65195 -43.36354,-4.31381 -11.78543,-0.50299 -23.5873,-0.33213 -35.37407,-0.8134 -7.78567,-0.22703 -15.57481,-0.43683 -23.36433,-0.34655 z"
       id="path3052"
       inkscape:connector-curvature="0"
       sodipodi:nodetypes="cssssccccccccccccccccccccccccc" />
    <path
       style="fill:#ffffff;stroke:#000000;stroke-width:1px;stroke-linecap:butt;stroke-linejoin:miter;stroke-opacity:1"
       d="m 652.96649,272.46095 -19.00382,-3.29351 c 0,0 -39.6813,-59.27249 -123.01888,-70.38417 68.57058,-1.02178 104.52885,30.58143 142.0227,73.67768 z"
       id="path3869"
       inkscape:connector-curvature="0"
       sodipodi:nodetypes="cccc" />
    <path
       style="fill:none;stroke:#000000;stroke-width:2.01364493;stroke-linecap:butt;stroke-linejoin:miter;stroke-miterlimit:4;stroke-opacity:1;stroke-dasharray:none"
       d="m 102.91987,523.87225 c 0,0 341.35624,-305.68307 582.96693,-247.33057"
       id="path3822"
       inkscape:connector-curvature="0"
       sodipodi:nodetypes="cc" />
    <path
       style="fill:none;stroke:#000000;stroke-width:1px;stroke-linecap:butt;stroke-linejoin:miter;stroke-opacity:1"
       d="m 104.87207,528.09301 c 0,0 330.57551,174.51129 526.5451,-28.52937"
       id="path3824"
       inkscape:connector-curvature="0"
       sodipodi:nodetypes="cc" />
    <path
       style="fill:#ffffff;stroke:#000000;stroke-width:0.98920304px;stroke-linecap:butt;stroke-linejoin:miter;stroke-opacity:1"
       d="m 265.67016,580.30078 68.69037,13.83839 c 13.80542,-68.86251 16.49916,-152.55189 -37.37564,-212.51829 l -64.64977,39.53829 c 0,0 55.55839,88.96114 33.33504,159.14161 z"
       id="path3828"
       inkscape:connector-curvature="0"
       sodipodi:nodetypes="ccccc" />
    <path
       style="fill:#ffffff;stroke:#000000;stroke-width:1.00310159px;stroke-linecap:butt;stroke-linejoin:miter;stroke-opacity:1"
       d="m 138.19422,372.09878 89.75831,45.19453 63.22398,-40.72319 C 265.03785,343.59674 230.06507,318.88617 169.01819,324.601"
       id="path3830"
       inkscape:connector-curvature="0"
       sodipodi:nodetypes="cccc" />
    <path
       style="fill:#ffffff;stroke:#000000;stroke-width:1.07899964px;stroke-linecap:butt;stroke-linejoin:miter;stroke-opacity:1"
       d="m 348.04672,329.82993 c -1.87822,2.37195 15.81617,32.73729 17.8643,31.9202 87.57322,-69.49604 227.41432,-87.43705 238.11986,-82.57094 l -16.90387,-23.71941 c 0,0 -38.42646,-7.23037 -138.57481,31.80329 -100.05761,38.99828 -100.50548,42.56687 -100.50548,42.56687 z"
       id="path3842"
       inkscape:connector-curvature="0"
       sodipodi:nodetypes="ccccsc" />
    <path
       style="fill:#ffffff;stroke:#000000;stroke-width:1px;stroke-linecap:butt;stroke-linejoin:miter;stroke-opacity:1"
       d="m 363.54367,304.72429 c -2.49389,0.95864 -4.31581,3.0318 -6.5909,4.37027 -1.30304,0.91825 -2.60607,1.8365 -3.9091,2.75473 11.13629,13.51838 22.35107,27.02123 32.19162,41.53013 0.93255,1.48239 1.7462,3.04625 2.27713,4.71987 2.75233,-2.24552 5.94467,-3.86268 8.84585,-5.90158 1.27013,-0.82447 2.54027,-1.64895 3.8104,-2.47342 -5.17599,-7.48405 -10.0801,-15.18459 -15.85619,-22.2295 -1.51986,-1.90633 -3.25385,-3.61603 -5.17506,-5.11425 -1.52794,-1.18575 -1.70401,-3.21753 -2.752,-4.73894 -2.64345,-4.62165 -6.22081,-8.70041 -10.31927,-12.07982 -0.72961,-0.50166 -1.60815,-0.96708 -2.52248,-0.83749 z"
       id="path3847"
       inkscape:connector-curvature="0" />
    <path
       inkscape:connector-curvature="0"
       id="path3849"
       d="m 378.3561,297.50576 c 0,0 36.42857,43.57143 34.28571,46.42857 0.71429,0 0.71429,-0.71429 0.71429,-0.71429 l 12.14285,-7.85714 c 0,0 -31.42857,-47.14286 -36.42857,-45 -0.71428,0 -0.71428,0 -0.71428,0 z"
       style="fill:#ffffff;stroke:#000000;stroke-width:1px;stroke-linecap:butt;stroke-linejoin:miter;stroke-opacity:1" />
    <path
       style="fill:#ffffff;stroke:#000000;stroke-width:1px;stroke-linecap:butt;stroke-linejoin:miter;stroke-opacity:1"
       d="m 413.3561,283.22005 c 0,0 36.42857,43.57143 34.28571,46.42857 0.71429,0 0.71429,-0.71429 0.71429,-0.71429 l 12.14285,-7.85714 c 0,0 -31.42857,-47.14286 -36.42857,-45 -0.71428,0 -0.71428,0 -0.71428,0 z"
       id="path3851"
       inkscape:connector-curvature="0" />
    <path
       inkscape:connector-curvature="0"
       id="path3853"
       d="m 413.3561,283.22005 c 0,0 36.42857,43.57143 34.28571,46.42857 0.71429,0 0.71429,-0.71429 0.71429,-0.71429 l 12.14285,-7.85714 c 0,0 -31.42857,-47.14286 -36.42857,-45 -0.71428,0 -0.71428,0 -0.71428,0 z"
       style="fill:#ffffff;stroke:#000000;stroke-width:1px;stroke-linecap:butt;stroke-linejoin:miter;stroke-opacity:1" />
    <path
       style="fill:#ffffff;stroke:#000000;stroke-width:0.93021172px;stroke-linecap:butt;stroke-linejoin:miter;stroke-opacity:1"
       d="m 446.17835,271.28569 c 0,0 33.72275,40.72719 31.73906,43.39783 0.66123,0 0.66123,-0.66767 0.66123,-0.66767 l 11.24092,-7.34424 c 0,0 -29.09415,-44.06549 -33.72276,-42.06251 -0.66123,0 -0.66123,0 -0.66123,0 z"
       id="path3855"
       inkscape:connector-curvature="0" />
    <path
       inkscape:connector-curvature="0"
       id="path3857"
       d="m 477.00716,259.4985 c 0,0 33.67923,42.70367 30.85793,44.94849 0.79281,0.0875 0.90353,-0.53933 0.90353,-0.53933 l 14.69561,-5.40726 c 0,0 -27.57598,-45.22518 -33.45779,-43.95739 -0.7928,-0.0876 -0.7928,-0.0876 -0.7928,-0.0876 z"
       style="fill:#ffffff;stroke:#000000;stroke-width:0.99653715px;stroke-linecap:butt;stroke-linejoin:miter;stroke-opacity:1" />
    <path
       style="fill:#ffffff;stroke:#000000;stroke-width:0.90209055px;stroke-linecap:butt;stroke-linejoin:miter;stroke-opacity:1"
       d="m 510.53137,254.02854 c 0,0 30.12293,39.12401 27.59954,41.18066 0.70909,0.0802 0.80812,-0.49412 0.80812,-0.49412 l 13.14385,-4.95399 c 0,0 -24.66414,-41.43416 -29.92487,-40.27265 -0.70909,-0.0803 -0.70909,-0.0803 -0.70909,-0.0803 z"
       id="path3859"
       inkscape:connector-curvature="0" />
    <path
       inkscape:connector-curvature="0"
       id="path3861"
       d="m 542.67423,249.34138 c 0,0 30.12293,35.72455 27.59954,37.6025 0.70909,0.0732 0.80812,-0.45119 0.80812,-0.45119 l 13.14385,-4.52355 c 0,0 -24.66414,-37.83397 -29.92487,-36.77339 -0.70909,-0.0733 -0.70909,-0.0733 -0.70909,-0.0733 z"
       style="fill:#ffffff;stroke:#000000;stroke-width:0.86200911px;stroke-linecap:butt;stroke-linejoin:miter;stroke-opacity:1" />
    <path
       style="fill:#ffffff;stroke:#000000;stroke-width:0.71682835px;stroke-linecap:butt;stroke-linejoin:miter;stroke-opacity:1"
       d="m 576.88736,250.56175 c 0,0 26.08559,28.52791 23.9004,30.02755 0.61405,0.0585 0.69981,-0.36029 0.69981,-0.36029 l 11.38219,-3.61228 c 0,0 -21.35843,-30.2124 -25.91407,-29.36548 -0.61405,-0.0585 -0.61405,-0.0585 -0.61405,-0.0585 z"
       id="path3863"
       inkscape:connector-curvature="0" />
    <path
       style="fill:#ffffff;stroke:#000000;stroke-width:1px;stroke-linecap:butt;stroke-linejoin:miter;stroke-opacity:1"
       d="m 637.26887,274.31012 c 0,0 54.68566,86.09756 33.97754,155.29302 14.18061,-29.90347 14.38245,-27.91778 16.66751,-42.42641 -5.08136,-39.64519 -4.68019,-84.77316 -34.48261,-110.34122 2.08159,0.50508 0.50508,0.50508 0.50508,0.50508 z"
       id="path3867"
       inkscape:connector-curvature="0"
       sodipodi:nodetypes="cccccc" />
    <path
       sodipodi:type="arc"
       style="opacity:0.71122993;fill:#000000;stroke:none;filter:url(#filter3941)"
       id="path3923"
       sodipodi:cx="121.21831"
       sodipodi:cy="125.04214"
       sodipodi:rx="180.81731"
       sodipodi:ry="35.355339"
       d="m 302.03561,125.04214 c 0,19.52621 -80.95466,35.35534 -180.8173,35.35534 -99.862643,0 -180.817309,-15.82913 -180.817309,-35.35534 0,-19.52622 80.954666,-35.355342 180.817309,-35.355342 99.86264,0 180.8173,15.829122 180.8173,35.355342 z"
       transform="matrix(1.5796478,-0.56849584,0.6104162,1.1628881,123.11905,358.66107)" />
  </g>
</svg>
